<svg xmlns="http://www.w3.org/2000/svg" xmlns:xlink="http://www.w3.org/1999/xlink" width="500" zoomAndPan="magnify" viewBox="0 0 375 374.999991" height="500" preserveAspectRatio="xMidYMid meet" version="1.0"><defs><g/><clipPath id="83355af1bd"><path d="M 99.96875 67 L 274.71875 67 L 274.71875 216.304688 L 99.96875 216.304688 Z M 99.96875 67 " clip-rule="nonzero"/></clipPath></defs><rect x="-37.5" width="450" fill="#ffffff" y="-37.499999" height="449.999989" fill-opacity="1"/><rect x="-37.5" width="450" fill="#ffffff" y="-37.499999" height="449.999989" fill-opacity="1"/><g clip-path="url(#83355af1bd)"><path fill="#000000" d="M 231.257812 167.941406 C 231.257812 175.199219 225.382812 181.074219 218.125 181.074219 C 210.882812 181.074219 205.011719 175.199219 205.011719 167.941406 C 205.011719 160.683594 210.882812 154.808594 218.125 154.808594 C 225.382812 154.808594 231.257812 160.683594 231.257812 167.941406 Z M 169.996094 167.941406 C 169.996094 175.199219 164.105469 181.074219 156.863281 181.074219 C 149.605469 181.074219 143.730469 175.199219 143.730469 167.941406 C 143.730469 160.683594 149.605469 154.808594 156.863281 154.808594 C 164.105469 154.808594 169.996094 160.683594 169.996094 167.941406 Z M 248.773438 189.824219 C 248.757812 199.492188 240.925781 207.324219 231.257812 207.324219 L 143.730469 207.324219 C 134.066406 207.324219 126.230469 199.492188 126.230469 189.824219 L 126.230469 146.0625 C 126.230469 136.394531 134.066406 128.5625 143.730469 128.546875 L 231.257812 128.546875 C 240.925781 128.5625 248.757812 136.394531 248.773438 146.0625 Z M 261.890625 154.808594 L 257.507812 154.808594 L 257.507812 146.0625 C 257.507812 131.5625 245.757812 119.796875 231.257812 119.796875 L 196.246094 119.796875 L 196.246094 99.871094 C 204.621094 95.039062 207.496094 84.332031 202.648438 75.953125 C 197.8125 67.578125 187.121094 64.71875 178.746094 69.550781 C 170.367188 74.386719 167.492188 85.09375 172.34375 93.453125 C 173.867188 96.128906 176.089844 98.335938 178.746094 99.871094 L 178.746094 119.796875 L 143.730469 119.796875 C 129.230469 119.796875 117.46875 131.5625 117.46875 146.0625 L 117.46875 154.808594 L 113.101562 154.808594 C 105.84375 154.808594 99.96875 160.683594 99.96875 167.941406 C 99.96875 175.199219 105.84375 181.074219 113.101562 181.074219 L 117.46875 181.074219 L 117.46875 189.824219 C 117.46875 204.324219 129.230469 216.089844 143.730469 216.089844 L 231.257812 216.089844 C 245.757812 216.089844 257.507812 204.324219 257.507812 189.824219 L 257.507812 181.074219 L 261.890625 181.074219 C 269.148438 181.074219 275.023438 175.199219 275.023438 167.941406 C 275.023438 160.683594 269.148438 154.808594 261.890625 154.808594 " fill-opacity="1" fill-rule="nonzero"/></g><g fill="#000000" fill-opacity="1"><g transform="translate(21.960703, 270.098099)"><g><path d="M 18.171875 -25.96875 C 20.671875 -25.96875 22.90625 -25.421875 24.875 -24.328125 C 26.851562 -23.234375 28.398438 -21.691406 29.515625 -19.703125 C 30.640625 -17.722656 31.203125 -15.4375 31.203125 -12.84375 C 31.203125 -10.238281 30.640625 -7.9375 29.515625 -5.9375 C 28.398438 -3.9375 26.851562 -2.390625 24.875 -1.296875 C 22.90625 -0.203125 20.671875 0.34375 18.171875 0.34375 C 16.410156 0.34375 14.800781 0.0390625 13.34375 -0.5625 C 11.882812 -1.175781 10.65625 -2.09375 9.65625 -3.3125 L 9.65625 0 L 3.9375 0 L 3.9375 -35.671875 L 9.953125 -35.671875 L 9.953125 -22.546875 C 10.972656 -23.671875 12.179688 -24.519531 13.578125 -25.09375 C 14.972656 -25.675781 16.503906 -25.96875 18.171875 -25.96875 Z M 17.5 -4.8125 C 19.707031 -4.8125 21.523438 -5.546875 22.953125 -7.015625 C 24.378906 -8.492188 25.09375 -10.4375 25.09375 -12.84375 C 25.09375 -15.238281 24.378906 -17.171875 22.953125 -18.640625 C 21.523438 -20.117188 19.707031 -20.859375 17.5 -20.859375 C 16.0625 -20.859375 14.765625 -20.53125 13.609375 -19.875 C 12.453125 -19.21875 11.535156 -18.28125 10.859375 -17.0625 C 10.191406 -15.84375 9.859375 -14.4375 9.859375 -12.84375 C 9.859375 -11.238281 10.191406 -9.828125 10.859375 -8.609375 C 11.535156 -7.390625 12.453125 -6.453125 13.609375 -5.796875 C 14.765625 -5.140625 16.0625 -4.8125 17.5 -4.8125 Z M 17.5 -4.8125 "/></g></g><g transform="translate(54.944695, 270.098099)"><g><path d="M 13.75 -25.96875 C 17.53125 -25.96875 20.421875 -25.0625 22.421875 -23.25 C 24.429688 -21.4375 25.4375 -18.703125 25.4375 -15.046875 L 25.4375 0 L 19.765625 0 L 19.765625 -3.125 C 19.023438 -2 17.972656 -1.140625 16.609375 -0.546875 C 15.242188 0.046875 13.601562 0.34375 11.6875 0.34375 C 9.757812 0.34375 8.070312 0.015625 6.625 -0.640625 C 5.1875 -1.304688 4.070312 -2.222656 3.28125 -3.390625 C 2.5 -4.554688 2.109375 -5.878906 2.109375 -7.359375 C 2.109375 -9.660156 2.96875 -11.507812 4.6875 -12.90625 C 6.40625 -14.300781 9.101562 -15 12.78125 -15 L 19.421875 -15 L 19.421875 -15.390625 C 19.421875 -17.179688 18.882812 -18.554688 17.8125 -19.515625 C 16.738281 -20.484375 15.144531 -20.96875 13.03125 -20.96875 C 11.582031 -20.96875 10.160156 -20.738281 8.765625 -20.28125 C 7.378906 -19.832031 6.203125 -19.207031 5.234375 -18.40625 L 2.890625 -22.78125 C 4.234375 -23.8125 5.847656 -24.597656 7.734375 -25.140625 C 9.628906 -25.691406 11.632812 -25.96875 13.75 -25.96875 Z M 12.9375 -4.03125 C 14.4375 -4.03125 15.769531 -4.375 16.9375 -5.0625 C 18.113281 -5.757812 18.941406 -6.75 19.421875 -8.03125 L 19.421875 -11.015625 L 13.21875 -11.015625 C 9.757812 -11.015625 8.03125 -9.875 8.03125 -7.59375 C 8.03125 -6.507812 8.460938 -5.644531 9.328125 -5 C 10.191406 -4.351562 11.394531 -4.03125 12.9375 -4.03125 Z M 12.9375 -4.03125 "/></g></g></g><g fill="#000000" fill-opacity="1"><g transform="translate(84.130252, 270.098099)"><g><path d="M 3.9375 -25.671875 L 9.953125 -25.671875 L 9.953125 0 L 3.9375 0 Z M 6.96875 -29.90625 C 5.875 -29.90625 4.957031 -30.25 4.21875 -30.9375 C 3.488281 -31.625 3.125 -32.484375 3.125 -33.515625 C 3.125 -34.535156 3.488281 -35.390625 4.21875 -36.078125 C 4.957031 -36.765625 5.875 -37.109375 6.96875 -37.109375 C 8.0625 -37.109375 8.972656 -36.78125 9.703125 -36.125 C 10.441406 -35.46875 10.8125 -34.644531 10.8125 -33.65625 C 10.8125 -32.59375 10.453125 -31.703125 9.734375 -30.984375 C 9.015625 -30.265625 8.09375 -29.90625 6.96875 -29.90625 Z M 6.96875 -29.90625 "/></g></g></g><g fill="#000000" fill-opacity="1"><g transform="translate(98.025834, 270.098099)"><g><path d="M 3.9375 -35.671875 L 9.953125 -35.671875 L 9.953125 0 L 3.9375 0 Z M 3.9375 -35.671875 "/></g></g></g><g fill="#000000" fill-opacity="1"><g transform="translate(111.921415, 270.098099)"><g><path d="M 28.078125 -12.6875 C 28.078125 -12.269531 28.046875 -11.675781 27.984375 -10.90625 L 7.84375 -10.90625 C 8.1875 -9.019531 9.101562 -7.523438 10.59375 -6.421875 C 12.09375 -5.316406 13.945312 -4.765625 16.15625 -4.765625 C 18.976562 -4.765625 21.300781 -5.691406 23.125 -7.546875 L 26.34375 -3.84375 C 25.1875 -2.46875 23.726562 -1.425781 21.96875 -0.71875 C 20.207031 -0.0078125 18.222656 0.34375 16.015625 0.34375 C 13.191406 0.34375 10.707031 -0.21875 8.5625 -1.34375 C 6.414062 -2.46875 4.753906 -4.03125 3.578125 -6.03125 C 2.410156 -8.03125 1.828125 -10.300781 1.828125 -12.84375 C 1.828125 -15.34375 2.394531 -17.59375 3.53125 -19.59375 C 4.664062 -21.59375 6.242188 -23.15625 8.265625 -24.28125 C 10.285156 -25.40625 12.5625 -25.96875 15.09375 -25.96875 C 17.59375 -25.96875 19.828125 -25.410156 21.796875 -24.296875 C 23.773438 -23.191406 25.316406 -21.640625 26.421875 -19.640625 C 27.523438 -17.640625 28.078125 -15.320312 28.078125 -12.6875 Z M 15.09375 -21.15625 C 13.175781 -21.15625 11.550781 -20.582031 10.21875 -19.4375 C 8.882812 -18.300781 8.070312 -16.789062 7.78125 -14.90625 L 22.359375 -14.90625 C 22.097656 -16.757812 21.3125 -18.265625 20 -19.421875 C 18.6875 -20.578125 17.050781 -21.15625 15.09375 -21.15625 Z M 15.09375 -21.15625 "/></g></g><g transform="translate(141.828184, 270.098099)"><g><path d="M 27.984375 -25.671875 L 15.96875 2.0625 C 14.84375 4.851562 13.476562 6.816406 11.875 7.953125 C 10.269531 9.085938 8.332031 9.65625 6.0625 9.65625 C 4.78125 9.65625 3.515625 9.445312 2.265625 9.03125 C 1.015625 8.613281 -0.0078125 8.039062 -0.8125 7.3125 L 1.59375 2.890625 C 2.164062 3.429688 2.84375 3.859375 3.625 4.171875 C 4.414062 4.492188 5.210938 4.65625 6.015625 4.65625 C 7.066406 4.65625 7.9375 4.382812 8.625 3.84375 C 9.3125 3.300781 9.945312 2.390625 10.53125 1.109375 L 10.96875 0.09375 L -0.234375 -25.671875 L 6.015625 -25.671875 L 14.09375 -6.6875 L 22.21875 -25.671875 Z M 27.984375 -25.671875 "/></g></g></g><g fill="#000000" fill-opacity="1"><g transform="translate(169.619365, 270.098099)"><g><path d="M 29.09375 -35.671875 L 29.09375 0 L 23.3125 0 L 23.3125 -3.3125 C 22.320312 -2.09375 21.097656 -1.175781 19.640625 -0.5625 C 18.179688 0.0390625 16.570312 0.34375 14.8125 0.34375 C 12.34375 0.34375 10.117188 -0.203125 8.140625 -1.296875 C 6.171875 -2.390625 4.625 -3.9375 3.5 -5.9375 C 2.382812 -7.9375 1.828125 -10.238281 1.828125 -12.84375 C 1.828125 -15.4375 2.382812 -17.722656 3.5 -19.703125 C 4.625 -21.691406 6.171875 -23.234375 8.140625 -24.328125 C 10.117188 -25.421875 12.34375 -25.96875 14.8125 -25.96875 C 16.507812 -25.96875 18.0625 -25.675781 19.46875 -25.09375 C 20.882812 -24.519531 22.085938 -23.65625 23.078125 -22.5 L 23.078125 -35.671875 Z M 15.53125 -4.8125 C 16.96875 -4.8125 18.265625 -5.140625 19.421875 -5.796875 C 20.578125 -6.453125 21.488281 -7.390625 22.15625 -8.609375 C 22.832031 -9.828125 23.171875 -11.238281 23.171875 -12.84375 C 23.171875 -14.4375 22.832031 -15.84375 22.15625 -17.0625 C 21.488281 -18.28125 20.578125 -19.21875 19.421875 -19.875 C 18.265625 -20.53125 16.96875 -20.859375 15.53125 -20.859375 C 14.082031 -20.859375 12.78125 -20.53125 11.625 -19.875 C 10.476562 -19.21875 9.566406 -18.28125 8.890625 -17.0625 C 8.222656 -15.84375 7.890625 -14.4375 7.890625 -12.84375 C 7.890625 -11.238281 8.222656 -9.828125 8.890625 -8.609375 C 9.566406 -7.390625 10.476562 -6.453125 11.625 -5.796875 C 12.78125 -5.140625 14.082031 -4.8125 15.53125 -4.8125 Z M 15.53125 -4.8125 "/></g></g></g><g fill="#000000" fill-opacity="1"><g transform="translate(202.651439, 270.098099)"><g><path d="M 28.078125 -12.6875 C 28.078125 -12.269531 28.046875 -11.675781 27.984375 -10.90625 L 7.84375 -10.90625 C 8.1875 -9.019531 9.101562 -7.523438 10.59375 -6.421875 C 12.09375 -5.316406 13.945312 -4.765625 16.15625 -4.765625 C 18.976562 -4.765625 21.300781 -5.691406 23.125 -7.546875 L 26.34375 -3.84375 C 25.1875 -2.46875 23.726562 -1.425781 21.96875 -0.71875 C 20.207031 -0.0078125 18.222656 0.34375 16.015625 0.34375 C 13.191406 0.34375 10.707031 -0.21875 8.5625 -1.34375 C 6.414062 -2.46875 4.753906 -4.03125 3.578125 -6.03125 C 2.410156 -8.03125 1.828125 -10.300781 1.828125 -12.84375 C 1.828125 -15.34375 2.394531 -17.59375 3.53125 -19.59375 C 4.664062 -21.59375 6.242188 -23.15625 8.265625 -24.28125 C 10.285156 -25.40625 12.5625 -25.96875 15.09375 -25.96875 C 17.59375 -25.96875 19.828125 -25.410156 21.796875 -24.296875 C 23.773438 -23.191406 25.316406 -21.640625 26.421875 -19.640625 C 27.523438 -17.640625 28.078125 -15.320312 28.078125 -12.6875 Z M 15.09375 -21.15625 C 13.175781 -21.15625 11.550781 -20.582031 10.21875 -19.4375 C 8.882812 -18.300781 8.070312 -16.789062 7.78125 -14.90625 L 22.359375 -14.90625 C 22.097656 -16.757812 21.3125 -18.265625 20 -19.421875 C 18.6875 -20.578125 17.050781 -21.15625 15.09375 -21.15625 Z M 15.09375 -21.15625 "/></g></g><g transform="translate(232.558208, 270.098099)"><g><path d="M 27.984375 -25.671875 L 16.96875 0 L 10.765625 0 L -0.234375 -25.671875 L 6.015625 -25.671875 L 13.984375 -6.640625 L 22.21875 -25.671875 Z M 27.984375 -25.671875 "/></g></g></g><g fill="#000000" fill-opacity="1"><g transform="translate(260.349389, 270.098099)"><g><path d="M 5.859375 0.34375 C 4.773438 0.34375 3.847656 -0.03125 3.078125 -0.78125 C 2.304688 -1.539062 1.921875 -2.5 1.921875 -3.65625 C 1.921875 -4.84375 2.296875 -5.800781 3.046875 -6.53125 C 3.804688 -7.269531 4.742188 -7.640625 5.859375 -7.640625 C 6.984375 -7.640625 7.921875 -7.269531 8.671875 -6.53125 C 9.429688 -5.800781 9.8125 -4.84375 9.8125 -3.65625 C 9.8125 -2.5 9.425781 -1.539062 8.65625 -0.78125 C 7.882812 -0.03125 6.953125 0.34375 5.859375 0.34375 Z M 5.859375 0.34375 "/></g></g></g><g fill="#000000" fill-opacity="1"><g transform="translate(272.081303, 270.098099)"><g><path d="M 20.28125 0 L 13.703125 -8.890625 L 7.0625 0 L 0.4375 0 L 10.4375 -13.03125 L 0.859375 -25.671875 L 7.546875 -25.671875 L 13.84375 -17.265625 L 20.140625 -25.671875 L 26.640625 -25.671875 L 17.015625 -13.125 L 27.0625 0 Z M 20.28125 0 "/></g></g></g><g fill="#000000" fill-opacity="1"><g transform="translate(299.632076, 270.098099)"><g><path d="M 27.984375 -25.671875 L 15.96875 2.0625 C 14.84375 4.851562 13.476562 6.816406 11.875 7.953125 C 10.269531 9.085938 8.332031 9.65625 6.0625 9.65625 C 4.78125 9.65625 3.515625 9.445312 2.265625 9.03125 C 1.015625 8.613281 -0.0078125 8.039062 -0.8125 7.3125 L 1.59375 2.890625 C 2.164062 3.429688 2.84375 3.859375 3.625 4.171875 C 4.414062 4.492188 5.210938 4.65625 6.015625 4.65625 C 7.066406 4.65625 7.9375 4.382812 8.625 3.84375 C 9.3125 3.300781 9.945312 2.390625 10.53125 1.109375 L 10.96875 0.09375 L -0.234375 -25.671875 L 6.015625 -25.671875 L 14.09375 -6.6875 L 22.21875 -25.671875 Z M 27.984375 -25.671875 "/></g></g></g><g fill="#000000" fill-opacity="1"><g transform="translate(327.423258, 270.098099)"><g><path d="M 23.984375 -4.8125 L 23.984375 0 L 1.828125 0 L 1.828125 -3.796875 L 15.90625 -20.859375 L 2.109375 -20.859375 L 2.109375 -25.671875 L 23.609375 -25.671875 L 23.609375 -21.875 L 9.46875 -4.8125 Z M 23.984375 -4.8125 "/></g></g></g></svg>